<?xml version="1.0" encoding="UTF-8"?>
<svg version="1.1" viewBox="0 0 2048 768" width="400" height="150" xmlns="http://www.w3.org/2000/svg">
<path transform="translate(0)" d="m0 0h2048v768h-2048z"/>
<path transform="translate(1110,175)" d="m0 0h61l15 1 11 4 8 7 6 8 2 7v14l-6 12-10 10 7 2 9 8 5 8 2 7v11l-4 12-8 11-9 6-12 3-33 1h-44l-1-9v-122z" fill="#FEFEFE"/>
<path transform="translate(299,128)" d="m0 0h15l12 5 11 8 8 10 7 15 4 15 1 8v29l-5 17-11 21-14 23-9 16-5 11-3 16-1 2-4-1-6-20-8-16-11-19-9-15-9-17-5-14-2-10v-22l6-23 8-16 8-11 11-8z" fill="#471C1B"/>
<path transform="translate(729,175)" d="m0 0h25v46l12-8 9-3h16l11 4 10 9 5 8 4 11 1 5v23l-4 15-7 11-9 8-9 4-5 1h-11l-10-3-9-7-6-5 1 12-2 1h-18l-4-1z" fill="#FEFEFE"/>
<path transform="translate(526,175)" d="m0 0h22l4 1 1 90 4 11 7 6 11 3 13-1 8-4 5-6 2-8 1-83 1-9h19l7 1v69l-1 25-2 12-5 10-5 6-10 6-9 3-12 2h-19l-14-3-12-6-7-7-6-12-3-14-1-29v-36z" fill="#FEFEFE"/>
<path transform="translate(877,209)" d="m0 0 18 1 11 3 8 6 4 6 2 7 1 55 2 13 1 6-7 1h-15l-2-2-1-7-11 6-10 4-5 1h-12l-10-3-8-7-5-7-2-6v-11l4-9 5-6 12-6 25-6 12-3 1-1v-7l-3-5-4-2-9-1-12 2-2 5-5 4-17-2-3-2 1-7 6-9 8-6 8-3z" fill="#FEFEFE"/>
<path transform="translate(1381,210)" d="m0 0h21l10 3 9 6 7 8 5 11 3 12 1 15-1 1h-64l5 14 5 6 7 3h11l7-5 3-7 12 1 13 3-1 5-8 11-9 7-11 4-5 1h-16l-12-3-9-5-8-9-5-10-3-11v-24l4-12 7-12 8-7 10-5z" fill="#FEFEFE"/>
<path transform="translate(990,210)" d="m0 0h18l9 3 8 6 5 10 1 4v73h-24l-1-1-1-63-4-10-6-3h-7l-9 3-6 7-2 6-2 61h-24l-1-11v-83l4-1h18l2 2 1 11 9-8z" fill="#FEFEFE"/>
<path transform="translate(1490,209)" d="m0 0h9l14 2 9 4 7 5 7 11-1 4-15 3h-8l-4-7-9-3h-9l-9 2-3 2v6l8 4 35 10 10 6 6 7 3 7v9l-4 10-7 8-7 5-13 4-6 1h-17l-12-3-11-6-7-7-5-8-1-5 17-3h8l6 9 5 3 4 1h13l10-5 1-7-6-4-25-6-15-6-8-6-5-8-1-4v-11l4-10 9-8 10-4z" fill="#FEFEFE"/>
<path transform="translate(1318,178)" d="m0 0 2 1v32l16 1 1 1v17l-1 1h-16v56h16l2 4 1 12-2 3-11 3h-14l-8-3-7-8-2-5-1-9v-53h-11v-19h11v-18l5-5 11-6z" fill="#FEFEFE"/>
<path transform="translate(696,210)" d="m0 0h11l10 2 1 1-1 9-4 10-5 3-10-3-7 3-4 5-2 5-1 6-2 55h-24l-1-1v-84l1-10 22 1 2 10 5-5 7-6z" fill="#FEFEFE"/>
<path transform="translate(519,453)" d="m0 0h24l11 2 7 6 5 10 1 13-2 12-6 10-6 4-5 1h-29l-1-1v-56z" fill="#030101"/>
<path transform="translate(1242,212)" d="m0 0h25v94h-25z" fill="#FEFEFE"/>
<path transform="translate(769,229)" d="m0 0h13l5 3 6 7 3 9v22l-3 9-6 7-6 3h-9l-8-4-7-8-3-10v-17l4-12 5-6z" fill="#020101"/>
<path transform="translate(1136,249)" d="m0 0 40 1 9 3 5 4 3 9-2 10-5 6-5 2-11 1h-34z" fill="#030101"/>
<path transform="translate(1540,452)" d="m0 0 4 1 1 57-12 2h-14l-6-4-5-8-1-4v-12l5-9 5-5 3-1h10l7 2v-17z" fill="#FEFEFE"/>
<path transform="translate(1234,453)" d="m0 0h4l1 2v54l-1 2h-7l-10 2-9-2-5-4-4-7-1-4v-11l3-8 5-6 4-2h11l7 2v-16z" fill="#FEFEFE"/>
<path transform="translate(750,453)" d="m0 0h6v18l6-2h12l7 4 4 6 1 3v14l-3 8-5 6-5 2h-13l-10-2-1-2v-38z" fill="#FEFEFE"/>
<path transform="translate(1631,452)" d="m0 0 4 1v57l-2 1-11 1h-12l-6-4-4-6-2-8v-9l4-9 4-5 4-2h9l9 2v-17z" fill="#FEFEFE"/>
<path transform="translate(1065,453)" d="m0 0 5 1 1 17 6-2h12l6 4 5 8v17l-3 6-5 6-4 2h-13l-4-1-5 1-2-2-1-6v-49z" fill="#FEFEFE"/>
<path transform="translate(1136,197)" d="m0 0h32l11 1 5 3 3 5v12l-5 7-5 2-9 1h-32z" fill="#040101"/>
<path transform="translate(1119,469)" d="m0 0h14l8 4 4 6 2 11-2 11-5 7-7 4-5 1h-7l-6-3-5-5-3-6-1-11 3-10 6-7z" fill="#FEFEFE"/>
<path transform="translate(904,468)" d="m0 0h8l7 3 6 6 3 10-1 6v7l-4 7-5 4-7 2h-7l-7-3-5-5-4-8-1-8 3-9 6-8z" fill="#FEFEFE"/>
<path transform="translate(837,468)" d="m0 0 10 1 7 4 5 10v9l-1 10-6 8-9 3h-9l-6-3-5-6-3-7v-12l5-10 6-5z" fill="#FEFEFE"/>
<path transform="translate(1264,468)" d="m0 0h7l9 4 5 6 2 5v14l-2 7-8 7-6 2h-8l-8-4-6-9-1-4v-10l4-9 6-7z" fill="#FEFEFE"/>
<path transform="translate(519,453)" d="m0 0h24l11 2 7 6 5 10 1 13-2 12-6 10-6 4-5 1h-29l-1-1v-56zm7 7v43l1 2h19l8-4 4-8 1-5v-11l-3-10-7-6-3-1z" fill="#FEFEFE"/>
<path transform="translate(1034,468)" d="m0 0 11 1 4 2 3 6 1 5 1 28-4 2-6-2-6 2-10 1-7-2-5-6-1-8 3-5 5-3 9-2 12-1-1-9-2-2-7-1-7 3-7 6h-2l1-7 5-5 4-2z" fill="#FEFEFE"/>
<path transform="translate(1570,468)" d="m0 0h9l7 3 3 5 1 4 1 30-1 1h-6l-3-1-5 2-12 1-7-3-4-7v-7l4-5 8-3 16-2v-7l-2-4h-12l-8 7-4 1 1-7 5-5z" fill="#FEFEFE"/>
<path transform="translate(1351,468)" d="m0 0h9l7 3 3 4 2 10v26h-6l-3-1-6 2h-15l-5-4-3-7 1-6 5-5 12-3 11-1v-7l-4-4-7-1-6 3-5 5h-4l1-7 6-5z" fill="#FEFEFE"/>
<path transform="translate(590,468)" d="m0 0h7l10 4 4 5 2 6v8l-3 2-28-1 2 8 5 6h10l6-5 5-7h2v7l-3 6-4 4-7 2h-10l-6-3-6-8-2-6v-11l4-9 7-6z" fill="#FEFEFE"/>
<path transform="translate(893,261)" d="m0 0h2l1 2v11l-2 7-4 5-9 5-8 1-7-3-5-8v-7l5-5 16-5z" fill="#050202"/>
<path transform="translate(631,468)" d="m0 0h10l8 4 3 5v5l-6-2-6-5-6-1-5 3-1 4 3 3 17 5 6 5v9l-5 7-6 3h-12l-6-3-5-6-1-8 5 2 6 7 6 2 7-1 3-5-1-4-3-2-13-3-6-3-3-4v-7l5-7z" fill="#FEFEFE"/>
<path transform="translate(986,468)" d="m0 0h10l8 4 4 8v2l-6-1-7-6h-9l-3 2 1 6 9 3 10 3 5 3 1 3v9l-4 5-5 3-4 1h-9l-8-4-4-6v-7l6 4 5 5 2 1h10l4-5-1-4-18-6-6-4-2-3 1-8 4-5z" fill="#FEFEFE"/>
<path transform="translate(706,469)" d="m0 0 5 1 1 31 2 4 2 1h7l4-2 2-4 1-7 1-23 1-1h6v41l-2 2-8-2-3 2h-14l-5-5-2-7v-30z" fill="#FEFEFE"/>
<path transform="translate(1386,229)" d="m0 0h13l5 3 4 5 5 11v2l-2 1h-36l-2-1 2-9 6-9z" fill="#060202"/>
<path transform="translate(1467,469)" d="m0 0 5 1v28l3 7 1 1h8l4-2 2-4 1-9 1-22h6l1 5v36l-4 1-10 1h-13l-5-4-2-5-1-8v-10l1-14z" fill="#FEFEFE"/>
<path transform="translate(1122,474)" d="m0 0h7l5 3 4 5 1 2v12l-4 8-5 3h-7l-6-4-3-7v-11l3-8z" fill="#050202"/>
<path transform="translate(1523,474)" d="m0 0 8 1 5 5 2 7-1 13-5 6-8 1-5-3-4-5-1-3v-11l4-8z" fill="#060202"/>
<path transform="translate(764,474)" d="m0 0h6l6 4 3 6v13l-3 6-5 4h-7l-7-6-1-4v-12l3-8z" fill="#060202"/>
<path transform="translate(1216,474)" d="m0 0h8l6 4 2 5v15l-3 6-4 3h-7l-5-3-4-9v-8l3-9z" fill="#050202"/>
<path transform="translate(1079,474)" d="m0 0h6l6 5 3 8-1 10-4 7-4 3h-7l-5-4-2-3-1-5v-9l3-8 3-3z" fill="#060202"/>
<path transform="translate(1613,474)" d="m0 0h6l6 4 3 4 1 4v8l-3 9-3 3-7 1-5-2-4-4-2-8 1-11 3-6z" fill="#060202"/>
<path transform="translate(676,468)" d="m0 0 10 1 6 3 4 5 1 6h-3l-12-8h-7l-4 4-2 7v10l3 7 4 3h8l5-4 6-7h2v7l-8 9-6 2h-8l-8-4-5-8-1-3v-14l3-8 8-7z" fill="#FEFEFE"/>
<path transform="translate(1419,468)" d="m0 0 9 1 6 3 4 5 1 7-6-3-9-6h-6l-4 1-3 11v9l3 7 5 3 9-1 8-9 4-1-1 7-7 8-9 3-11-2-7-8-2-5v-14l4-9 6-5z" fill="#FEFEFE"/>
<path transform="translate(1242,175)" d="m0 0h22l3 1v22h-25l-1-20z" fill="#FEFEFE"/>
<path transform="translate(1319,453)" d="m0 0h6l1 1v57h-7l-1-11v-46z" fill="#FEFEFE"/>
<path transform="translate(937,453)" d="m0 0h6v58h-6l-1-2v-55z" fill="#FEFEFE"/>
<path transform="translate(808,469)" d="m0 0 8 1 1 5-12 2-2 10-1 24h-7l-1-4 1-37z" fill="#FEFEFE"/>
<path transform="translate(1169,469)" d="m0 0h6l2 2v4l-12 2h-2l-1 30-1 4h-5l-2-2v-38l1-1z" fill="#FEFEFE"/>
<path transform="translate(1256,492)" d="m0 0h29l-1 5-8 8-3 2h-10l-5-4-2-4z" fill="#090303"/>
<path transform="translate(897,492)" d="m0 0h26l3 2-7 9-6 4h-9l-7-6-1-8z" fill="#070202"/>
<path transform="translate(828,492)" d="m0 0h27l2 2-7 9-5 4h-10l-5-5-2-4z" fill="#060202"/>
<path transform="translate(582,492)" d="m0 0h30v2h-2l-2 4-7 8-2 1h-10l-6-7-1-2z" fill="#060202"/>
<path transform="translate(1448,469)" d="m0 0 5 1 1 40-1 1h-6l-1-1v-40z" fill="#FEFEFE"/>
<path transform="translate(1578,491)" d="m0 0 5 1-1 9-5 5-5 2-8-1-3-3-1-7 4-3z" fill="#0A0303"/>
<path transform="translate(1042,491)" d="m0 0h3v9l-5 6-5 2-8-1-4-4v-6l3-3z" fill="#080303"/>
<path transform="translate(1361,491)" d="m0 0 3 1-1 10-6 5-8 1-5-2-2-3v-7l6-3z" fill="#0A0404"/>
<path transform="translate(835,474)" d="m0 0h9l6 5 2 5v3h-22l-2-1 1-7z" fill="#0B0404"/>
<path transform="translate(592,473)" d="m0 0 8 2 5 6 1 5-1 1h-20l-3-1 1-6 4-5z" fill="#0A0404"/>
<path transform="translate(1263,474)" d="m0 0h9l6 5 2 5v3h-22l-2-1 1-6 4-5z" fill="#0B0404"/>
<path transform="translate(903,474)" d="m0 0h9l7 6 2 7h-22l-3-1 1-5z" fill="#0B0404"/>
<path transform="translate(1449,453)" d="m0 0 4 2 1 3-1 2h-6l-1-5z" fill="#FEFEFE"/>
</svg>
